<?xml version="1.0" encoding="UTF-8" standalone="no"?>
<svg
   xmlns:dc="http://purl.org/dc/elements/1.1/"
   xmlns:cc="http://creativecommons.org/ns#"
   xmlns:rdf="http://www.w3.org/1999/02/22-rdf-syntax-ns#"
   xmlns:svg="http://www.w3.org/2000/svg"
   xmlns="http://www.w3.org/2000/svg"
   viewBox="0 0 1123.8198 1123.8198"
   height="1123.8198"
   width="1123.8198"
   xml:space="preserve"
   version="1.1"
   id="svg5398"><metadata
     id="metadata5404"><rdf:RDF><cc:Work
         rdf:about=""><dc:format>image/svg+xml</dc:format><dc:type
           rdf:resource="http://purl.org/dc/dcmitype/StillImage" /><dc:title></dc:title></cc:Work></rdf:RDF></metadata><defs
     id="defs5402" /><g
     transform="matrix(1.25,0,0,-1.25,0,1123.8198)"
     id="g5406"><g
       id="g5408"><path
         id="path5410"
         style="fill:#d9c022;fill-opacity:1;fill-rule:evenodd;stroke:none"
         d="M 822.082,450.364 C 822.082,351.579 782.84,256.841 712.988,186.989 643.137,117.142 548.398,77.896 449.617,77.896 c -98.785,0 -193.527,39.246 -263.375,109.093 -69.851,69.852 -109.09,164.59 -109.09,263.375 0,98.786 39.239,193.52 109.09,263.372 69.848,69.851 164.59,109.093 263.375,109.093 98.781,0 193.52,-39.242 263.371,-109.093 C 782.84,643.884 822.082,549.15 822.082,450.364 Z" /><path
         id="path5412"
         style="fill:#276235;fill-opacity:1;fill-rule:evenodd;stroke:none"
         d="M 449.527,899.056 C 330.309,899.056 215.969,851.693 131.664,767.392 47.363,683.087 0,568.747 0,449.529 0,330.306 47.363,215.966 131.664,131.665 215.969,47.364 330.309,0.001 449.527,0.001 c 119.223,0 233.563,47.363 317.864,131.664 84.3,84.301 131.664,198.641 131.664,317.864 0,119.218 -47.364,233.558 -131.664,317.863 C 683.09,851.693 568.75,899.056 449.527,899.056 Z m 0.09,-76.227 c 98.781,0 193.52,-39.242 263.371,-109.093 C 782.84,643.884 822.082,549.15 822.082,450.364 822.082,351.579 782.84,256.841 712.988,186.989 643.137,117.142 548.398,77.896 449.617,77.896 c -98.785,0 -193.523,39.246 -263.375,109.093 -69.851,69.852 -109.09,164.59 -109.09,263.375 0,98.786 39.239,193.52 109.09,263.372 69.852,69.851 164.59,109.093 263.375,109.093 z" /><path
         id="path5414"
         style="fill:#276235;fill-opacity:1;fill-rule:evenodd;stroke:none"
         d="m 513.867,744.845 112,0 0,-433.734 -112,0 0,173.543 -128.101,0 0,-173.543 -112,0 0,433.734 112,0 0,-177.418 128.101,0 0,177.418 z" /><path
         id="path5416"
         style="fill:#276235;fill-opacity:1;fill-rule:nonzero;stroke:none"
         d="m 400.898,273.032 28.368,-0.078 0,-85.195 c -0.02,-22.172 45.996,-22.172 45.425,0.461 l 0.606,84.734 28.582,0 0,-85.105 c 0.305,-60.5 -102.707,-59.274 -102.981,0.449 l 0,84.734 z" /><path
         id="path5418"
         style="fill:#276235;fill-opacity:1;fill-rule:evenodd;stroke:none"
         d="m 273.766,272.954 0,-129.25 c 0,0 45.39,-0.402 69.547,-0.523 0,0 13.367,0.637 19.757,5.055 8.539,4.656 17.11,13.898 17.129,31.886 0.016,15.735 -6.586,24.59 -14.004,29.508 5.993,5.41 10.789,13.973 10.805,27.426 0.02,17.988 -8.613,26.984 -17.223,31.387 -8.605,4.398 -17.195,4.281 -17.207,4.281 l -0.007,0 -68.797,0.23 z m 28.445,-22.136 28.383,-0.461 0.004,0 c 0,0 4.078,0.043 8.14,-1.832 4.059,-1.871 8.067,-5.571 8.059,-13.289 -0.008,-7.715 -4,-11.532 -8.035,-13.516 -4.028,-1.977 -8.059,-2.047 -8.071,-2.047 l -28.48,-0.273 0,31.418 z m 0,-53.676 31.582,-0.516 0.004,0 c 0,0 4.078,0.043 8.141,-1.832 4.058,-1.871 8.07,-5.57 8.058,-13.289 -0.008,-7.715 -4,-11.531 -8.031,-13.512 -4.027,-1.98 -8.059,-2.05 -8.07,-2.05 l -31.684,-0.305 0,31.504 z" /><path
         id="path5420"
         style="fill:#276235;fill-opacity:1;fill-rule:evenodd;stroke:none"
         d="m 580.008,273.009 c -1.551,-0.008 -3.113,-0.031 -4.672,-0.055 -2.363,-0.008 -4.578,-0.07 -6.727,-0.164 -22.824,0.055 -43.851,-2.785 -43.968,-33.015 l 0,-3.438 c -0.024,-0.918 -0.043,-1.836 -0.063,-2.758 0.172,-29.953 17.551,-35.863 41.203,-39.035 7.5,-0.289 15.305,-1.168 22.907,-1.828 0.109,0.008 0.214,0.012 0.324,0.016 4.121,0 7.461,-4.614 7.461,-10.309 0,-5.066 -2.66,-9.293 -6.184,-10.133 -3.008,-0.144 -6.973,-0.148 -12.351,-0.14 -12.555,0.14 -19.083,-0.012 -21.59,3.882 -0.309,1.329 -0.325,3.063 -0.325,5.36 l -28.984,0 c 0.02,-0.903 0.039,0.062 0.063,-0.836 l 0,-3.922 c 0.121,-30.766 21.89,-33.172 45.175,-33.023 l 21.711,-0.055 c 17.203,0 31.149,16.848 31.149,37.637 0,20.093 -12.86,35.453 -29.442,37.578 l -18.629,2.875 c -23.894,2.261 -23.171,3.558 -23.507,13.8 0,1.387 0.015,3.684 0.086,5.618 0.976,3.425 5.3,3.433 20.707,3.41 12.554,-0.141 19.078,0.012 21.586,-3.883 0.312,-1.328 0.328,-3.066 0.328,-5.363 l 28.98,0 c -0.019,0.906 -0.039,-0.059 -0.062,0.84 l 0,3.921 c -0.121,30.766 -21.887,33.172 -45.176,33.02 z" /><path
         id="path5422"
         style="fill:#d9c022;fill-opacity:1;fill-rule:evenodd;stroke:none"
         d="M 822.082,450.364 C 822.082,351.579 782.84,256.841 712.988,186.989 643.137,117.142 548.398,77.896 449.617,77.896 c -98.785,0 -193.527,39.246 -263.375,109.093 -69.851,69.852 -109.09,164.59 -109.09,263.375 0,98.786 39.239,193.52 109.09,263.372 69.848,69.851 164.59,109.093 263.375,109.093 98.781,0 193.52,-39.242 263.371,-109.093 C 782.84,643.884 822.082,549.15 822.082,450.364 Z" /><path
         id="path5424"
         style="fill:#276235;fill-opacity:1;fill-rule:evenodd;stroke:none"
         d="M 449.527,899.056 C 330.309,899.056 215.969,851.693 131.664,767.392 47.363,683.087 0,568.747 0,449.529 0,330.306 47.363,215.966 131.664,131.665 215.969,47.364 330.309,0.001 449.527,0.001 c 119.223,0 233.563,47.363 317.864,131.664 84.3,84.301 131.664,198.641 131.664,317.864 0,119.218 -47.364,233.558 -131.664,317.863 C 683.09,851.693 568.75,899.056 449.527,899.056 Z m 0.09,-76.227 c 98.781,0 193.52,-39.242 263.371,-109.093 C 782.84,643.884 822.082,549.15 822.082,450.364 822.082,351.579 782.84,256.841 712.988,186.989 643.137,117.142 548.398,77.896 449.617,77.896 c -98.785,0 -193.523,39.246 -263.375,109.093 -69.851,69.852 -109.09,164.59 -109.09,263.375 0,98.786 39.239,193.52 109.09,263.372 69.852,69.851 164.59,109.093 263.375,109.093 z" /><path
         id="path5426"
         style="fill:#276235;fill-opacity:1;fill-rule:evenodd;stroke:none"
         d="m 513.867,744.845 112,0 0,-433.734 -112,0 0,173.543 -128.101,0 0,-173.543 -112,0 0,433.734 112,0 0,-177.418 128.101,0 0,177.418 z" /><path
         id="path5428"
         style="fill:#276235;fill-opacity:1;fill-rule:nonzero;stroke:none"
         d="m 400.898,273.032 28.368,-0.078 0,-85.195 c -0.02,-22.172 45.996,-22.172 45.425,0.461 l 0.606,84.734 28.582,0 0,-85.105 c 0.305,-60.5 -102.707,-59.274 -102.981,0.449 l 0,84.734 z" /><path
         id="path5430"
         style="fill:#276235;fill-opacity:1;fill-rule:evenodd;stroke:none"
         d="m 273.766,272.954 0,-129.25 c 0,0 45.39,-0.402 69.547,-0.523 0,0 13.367,0.637 19.757,5.055 8.539,4.656 17.11,13.898 17.129,31.886 0.016,15.735 -6.586,24.59 -14.004,29.508 5.993,5.41 10.789,13.973 10.805,27.426 0.02,17.988 -8.613,26.984 -17.223,31.387 -8.605,4.398 -17.195,4.281 -17.207,4.281 l -0.007,0 -68.797,0.23 z m 28.445,-22.136 28.383,-0.461 0.004,0 c 0,0 4.078,0.043 8.14,-1.832 4.059,-1.871 8.067,-5.571 8.059,-13.289 -0.008,-7.715 -4,-11.532 -8.035,-13.516 -4.028,-1.977 -8.059,-2.047 -8.071,-2.047 l -28.48,-0.273 0,31.418 z m 0,-53.676 31.582,-0.516 0.004,0 c 0,0 4.078,0.043 8.141,-1.832 4.058,-1.871 8.07,-5.57 8.058,-13.289 -0.008,-7.715 -4,-11.531 -8.031,-13.512 -4.027,-1.98 -8.059,-2.05 -8.07,-2.05 l -31.684,-0.305 0,31.504 z" /><path
         id="path5432"
         style="fill:#276235;fill-opacity:1;fill-rule:evenodd;stroke:none"
         d="m 555.836,272.954 c -17.203,0 -31.148,-16.785 -31.148,-37.574 0.199,-42.617 34.105,-38.75 65.601,-42.664 5.895,-0.816 6.102,-6.551 6.184,-10.293 0,-5.066 -0.289,-9.934 -6.004,-9.953 l -14.133,-0.047 c -16.789,0.066 -21.941,0.066 -21.914,6.809 l 0,3.761 -28.981,0 0,-6.359 c 0.122,-30.766 21.95,-33.172 45.239,-33.023 l 20.109,-0.055 c 34.293,-0.172 34.348,37.637 34.348,37.637 -0.055,42.488 -32.867,39.64 -65.602,42.664 -6.258,0.613 -6.101,6.55 -6.183,10.293 0,5.066 -0.075,10.179 6.183,10.132 0,0 0.012,0.047 12.227,0.012 18.629,0.035 22,0.035 22.039,-6.953 l 0,-2.16 28.922,0 0,4.758 c -0.121,30.765 -21.891,33.164 -45.176,33.015 l -21.711,0 z" /></g></g></svg>